<svg width="800" height="400" xmlns="http://www.w3.org/2000/svg">
  <rect width="800" height="400" fill="#1a1a1a"/>
  <text x="400" y="30" fill="#fff" text-anchor="middle" font-size="20" font-weight="bold">Price Forecast</text>
  
  <!-- Grid -->
  <line x1="60" y1="60" x2="60" y2="340" stroke="#333" stroke-width="2"/>
  <line x1="60" y1="340" x2="740" y2="340" stroke="#333" stroke-width="2"/>
  
  <!-- Historical data -->
  <polyline points="60,171.20282244831006 100,104.25828683951454 140,62.423695438136065 180,60 220,95.78109616015757 260,340 300,70.3380374138498 340,259.7998030850018 " fill="none" stroke="#00d4ff" stroke-width="2"/>
  
  <!-- Forecast data -->
  <polyline points="340,259.7998030850018 380,266.36701587084167 420,272.9342286566815 460,279.50144144252135 500,286.0686542283615 540,292.635867014201 580,299.20307980004117 620,305.77029258588067 660,312.33750537172085 700,318.9047181575607 740,325.47193094340054 " fill="none" stroke="#00ff00" stroke-width="2" stroke-dasharray="5,5"/>
  
  <!-- Divider -->
  <line x1="340" y1="60" x2="340" y2="340" stroke="#ff0000" stroke-width="1" stroke-dasharray="3,3"/>
  
  <!-- Y-axis labels -->
  <text x="50" y="60" fill="#fff" text-anchor="end" font-size="12">0.18</text>
  <text x="50" y="340" fill="#fff" text-anchor="end" font-size="12">0.16</text>
  
  <!-- Legend -->
  <text x="650" y="50" fill="#00d4ff" font-size="12">— Historical</text>
  <text x="650" y="70" fill="#00ff00" font-size="12">- - Forecast</text>
  
</svg>