<?xml version="1.0" encoding="UTF-8"?>
  <svg xmlns="http://www.w3.org/2000/svg" width="800" height="400" viewBox="0 0 800 400">
    <rect x="0" y="0" width="800" height="400" fill="#1a1a1a" />
    <line x1="60" y1="40.00" x2="780" y2="40.00" stroke="#333" stroke-width="1" />
<line x1="60" y1="104.00" x2="780" y2="104.00" stroke="#333" stroke-width="1" />
<line x1="60" y1="168.00" x2="780" y2="168.00" stroke="#333" stroke-width="1" />
<line x1="60" y1="232.00" x2="780" y2="232.00" stroke="#333" stroke-width="1" />
<line x1="60" y1="296.00" x2="780" y2="296.00" stroke="#333" stroke-width="1" />
<line x1="60" y1="360.00" x2="780" y2="360.00" stroke="#333" stroke-width="1" />
    <polygon points="660.00,1.06 680.00,21.45 700.00,-13.90 720.00,-25.71 740.00,38.88 760.00,-42.79 780.00,12.45 780.00,416.93 760.00,366.96 740.00,440.85 720.00,382.41 700.00,393.09 680.00,425.07 660.00,406.63" fill="rgba(0,150,255,0.1)" />
    <polyline fill="none" stroke="#00ff88" stroke-width="2" points="60.00,203.69 80.00,179.42 100.00,169.34 120.00,221.52 140.00,213.31 160.00,158.71 180.00,243.70 200.00,221.55 220.00,246.08 240.00,280.42 260.00,250.55 280.00,190.56 300.00,142.78 320.00,122.74 340.00,142.00 360.00,143.31 380.00,147.48 400.00,173.98 420.00,223.84 440.00,214.73 460.00,211.10 480.00,235.93 500.00,187.74 520.00,160.87 540.00,167.59 560.00,160.27 580.00,185.20 600.00,152.92 620.00,190.06 640.00,202.51" />
    <polyline fill="none" stroke="#0088ff" stroke-dasharray="5,5" stroke-width="2" points="660.00,203.84 680.00,223.26 700.00,189.59 720.00,178.35 740.00,239.87 760.00,162.08 780.00,214.69" />
    <text x="400" y="25" fill="#fff" font-size="14" text-anchor="middle">Price Forecast</text>
    <text x="50" y="364.00" fill="#fff" font-size="12" text-anchor="end">$0.16</text>
<text x="50" y="300.00" fill="#fff" font-size="12" text-anchor="end">$0.16</text>
<text x="50" y="236.00" fill="#fff" font-size="12" text-anchor="end">$0.16</text>
<text x="50" y="172.00" fill="#fff" font-size="12" text-anchor="end">$0.17</text>
<text x="50" y="108.00" fill="#fff" font-size="12" text-anchor="end">$0.17</text>
<text x="50" y="44.00" fill="#fff" font-size="12" text-anchor="end">$0.17</text>
    
    <text x="630" y="50" fill="#00ff88" font-size="12">● Historical</text>
    <text x="630" y="70" fill="#0088ff" font-size="12">● Forecast</text>
  
  </svg>