<?xml version="1.0" encoding="UTF-8"?>
  <svg xmlns="http://www.w3.org/2000/svg" width="800" height="400" viewBox="0 0 800 400">
    <rect x="0" y="0" width="800" height="400" fill="#1a1a1a" />
    
      <line x1="64.80" y1="92.66" x2="64.80" y2="93.28" stroke="#ff4444" stroke-width="1" />
      <rect x="61.20" y="92.93" width="7.20" height="1.00" fill="#ff4444" stroke="#ff4444" stroke-width="1" />
    

      <line x1="76.80" y1="110.23" x2="76.80" y2="110.48" stroke="#00ff88" stroke-width="1" />
      <rect x="73.20" y="110.43" width="7.20" height="1.00" fill="#00ff88" stroke="#00ff88" stroke-width="1" />
    

      <line x1="88.80" y1="98.20" x2="88.80" y2="98.46" stroke="#00ff88" stroke-width="1" />
      <rect x="85.20" y="98.35" width="7.20" height="1.00" fill="#00ff88" stroke="#00ff88" stroke-width="1" />
    

      <line x1="100.80" y1="106.05" x2="100.80" y2="106.53" stroke="#00ff88" stroke-width="1" />
      <rect x="97.20" y="106.38" width="7.20" height="1.00" fill="#00ff88" stroke="#00ff88" stroke-width="1" />
    

      <line x1="112.80" y1="105.93" x2="112.80" y2="106.40" stroke="#00ff88" stroke-width="1" />
      <rect x="109.20" y="106.17" width="7.20" height="1.00" fill="#00ff88" stroke="#00ff88" stroke-width="1" />
    

      <line x1="124.80" y1="106.40" x2="124.80" y2="106.76" stroke="#00ff88" stroke-width="1" />
      <rect x="121.20" y="106.48" width="7.20" height="1.00" fill="#00ff88" stroke="#00ff88" stroke-width="1" />
    

      <line x1="136.80" y1="85.15" x2="136.80" y2="85.56" stroke="#ff4444" stroke-width="1" />
      <rect x="133.20" y="85.31" width="7.20" height="1.00" fill="#ff4444" stroke="#ff4444" stroke-width="1" />
    

      <line x1="148.80" y1="118.09" x2="148.80" y2="118.21" stroke="#ff4444" stroke-width="1" />
      <rect x="145.20" y="117.92" width="7.20" height="1.00" fill="#ff4444" stroke="#ff4444" stroke-width="1" />
    

      <line x1="160.80" y1="157.98" x2="160.80" y2="158.59" stroke="#00ff88" stroke-width="1" />
      <rect x="157.20" y="158.22" width="7.20" height="1.00" fill="#00ff88" stroke="#00ff88" stroke-width="1" />
    

      <line x1="172.80" y1="199.19" x2="172.80" y2="199.50" stroke="#ff4444" stroke-width="1" />
      <rect x="169.20" y="199.07" width="7.20" height="1.00" fill="#ff4444" stroke="#ff4444" stroke-width="1" />
    

      <line x1="184.80" y1="234.32" x2="184.80" y2="234.74" stroke="#ff4444" stroke-width="1" />
      <rect x="181.20" y="234.34" width="7.20" height="1.00" fill="#ff4444" stroke="#ff4444" stroke-width="1" />
    

      <line x1="196.80" y1="257.47" x2="196.80" y2="257.57" stroke="#00ff88" stroke-width="1" />
      <rect x="193.20" y="257.54" width="7.20" height="1.00" fill="#00ff88" stroke="#00ff88" stroke-width="1" />
    

      <line x1="208.80" y1="265.10" x2="208.80" y2="265.44" stroke="#00ff88" stroke-width="1" />
      <rect x="205.20" y="265.31" width="7.20" height="1.00" fill="#00ff88" stroke="#00ff88" stroke-width="1" />
    

      <line x1="220.80" y1="272.57" x2="220.80" y2="273.03" stroke="#ff4444" stroke-width="1" />
      <rect x="217.20" y="272.59" width="7.20" height="1.00" fill="#ff4444" stroke="#ff4444" stroke-width="1" />
    

      <line x1="232.80" y1="236.57" x2="232.80" y2="236.80" stroke="#ff4444" stroke-width="1" />
      <rect x="229.20" y="236.47" width="7.20" height="1.00" fill="#ff4444" stroke="#ff4444" stroke-width="1" />
    

      <line x1="244.80" y1="222.54" x2="244.80" y2="222.88" stroke="#00ff88" stroke-width="1" />
      <rect x="241.20" y="222.78" width="7.20" height="1.00" fill="#00ff88" stroke="#00ff88" stroke-width="1" />
    

      <line x1="256.80" y1="238.86" x2="256.80" y2="239.19" stroke="#00ff88" stroke-width="1" />
      <rect x="253.20" y="238.95" width="7.20" height="1.00" fill="#00ff88" stroke="#00ff88" stroke-width="1" />
    

      <line x1="268.80" y1="245.42" x2="268.80" y2="245.86" stroke="#00ff88" stroke-width="1" />
      <rect x="265.20" y="245.55" width="7.20" height="1.00" fill="#00ff88" stroke="#00ff88" stroke-width="1" />
    

      <line x1="280.80" y1="248.52" x2="280.80" y2="248.96" stroke="#00ff88" stroke-width="1" />
      <rect x="277.20" y="248.63" width="7.20" height="1.00" fill="#00ff88" stroke="#00ff88" stroke-width="1" />
    

      <line x1="292.80" y1="272.29" x2="292.80" y2="272.90" stroke="#ff4444" stroke-width="1" />
      <rect x="289.20" y="272.56" width="7.20" height="1.00" fill="#ff4444" stroke="#ff4444" stroke-width="1" />
    

      <line x1="304.80" y1="309.89" x2="304.80" y2="310.37" stroke="#00ff88" stroke-width="1" />
      <rect x="301.20" y="310.10" width="7.20" height="1.00" fill="#00ff88" stroke="#00ff88" stroke-width="1" />
    

      <line x1="316.80" y1="275.41" x2="316.80" y2="275.91" stroke="#00ff88" stroke-width="1" />
      <rect x="313.20" y="275.73" width="7.20" height="1.00" fill="#00ff88" stroke="#00ff88" stroke-width="1" />
    

      <line x1="328.80" y1="261.09" x2="328.80" y2="261.56" stroke="#ff4444" stroke-width="1" />
      <rect x="325.20" y="261.07" width="7.20" height="1.00" fill="#ff4444" stroke="#ff4444" stroke-width="1" />
    

      <line x1="340.80" y1="255.21" x2="340.80" y2="255.77" stroke="#ff4444" stroke-width="1" />
      <rect x="337.20" y="255.41" width="7.20" height="1.00" fill="#ff4444" stroke="#ff4444" stroke-width="1" />
    

      <line x1="352.80" y1="275.24" x2="352.80" y2="275.46" stroke="#00ff88" stroke-width="1" />
      <rect x="349.20" y="275.26" width="7.20" height="1.00" fill="#00ff88" stroke="#00ff88" stroke-width="1" />
    

      <line x1="364.80" y1="306.72" x2="364.80" y2="306.96" stroke="#ff4444" stroke-width="1" />
      <rect x="361.20" y="306.56" width="7.20" height="1.00" fill="#ff4444" stroke="#ff4444" stroke-width="1" />
    

      <line x1="376.80" y1="296.70" x2="376.80" y2="297.29" stroke="#ff4444" stroke-width="1" />
      <rect x="373.20" y="296.96" width="7.20" height="1.00" fill="#ff4444" stroke="#ff4444" stroke-width="1" />
    

      <line x1="388.80" y1="319.20" x2="388.80" y2="319.54" stroke="#ff4444" stroke-width="1" />
      <rect x="385.20" y="319.17" width="7.20" height="1.00" fill="#ff4444" stroke="#ff4444" stroke-width="1" />
    

      <line x1="400.80" y1="309.76" x2="400.80" y2="310.17" stroke="#ff4444" stroke-width="1" />
      <rect x="397.20" y="310.02" width="7.20" height="1.00" fill="#ff4444" stroke="#ff4444" stroke-width="1" />
    

      <line x1="412.80" y1="310.86" x2="412.80" y2="311.11" stroke="#ff4444" stroke-width="1" />
      <rect x="409.20" y="310.74" width="7.20" height="1.00" fill="#ff4444" stroke="#ff4444" stroke-width="1" />
    

      <line x1="424.80" y1="271.76" x2="424.80" y2="272.04" stroke="#00ff88" stroke-width="1" />
      <rect x="421.20" y="272.03" width="7.20" height="1.00" fill="#00ff88" stroke="#00ff88" stroke-width="1" />
    

      <line x1="436.80" y1="259.41" x2="436.80" y2="259.68" stroke="#00ff88" stroke-width="1" />
      <rect x="433.20" y="259.64" width="7.20" height="1.00" fill="#00ff88" stroke="#00ff88" stroke-width="1" />
    

      <line x1="448.80" y1="254.37" x2="448.80" y2="254.82" stroke="#00ff88" stroke-width="1" />
      <rect x="445.20" y="254.49" width="7.20" height="1.00" fill="#00ff88" stroke="#00ff88" stroke-width="1" />
    

      <line x1="460.80" y1="281.03" x2="460.80" y2="281.47" stroke="#00ff88" stroke-width="1" />
      <rect x="457.20" y="281.14" width="7.20" height="1.00" fill="#00ff88" stroke="#00ff88" stroke-width="1" />
    

      <line x1="472.80" y1="276.83" x2="472.80" y2="277.25" stroke="#00ff88" stroke-width="1" />
      <rect x="469.20" y="276.94" width="7.20" height="1.00" fill="#00ff88" stroke="#00ff88" stroke-width="1" />
    

      <line x1="484.80" y1="248.74" x2="484.80" y2="249.28" stroke="#00ff88" stroke-width="1" />
      <rect x="481.20" y="249.07" width="7.20" height="1.00" fill="#00ff88" stroke="#00ff88" stroke-width="1" />
    

      <line x1="496.80" y1="292.25" x2="496.80" y2="292.68" stroke="#00ff88" stroke-width="1" />
      <rect x="493.20" y="292.46" width="7.20" height="1.00" fill="#00ff88" stroke="#00ff88" stroke-width="1" />
    

      <line x1="508.80" y1="281.13" x2="508.80" y2="281.44" stroke="#ff4444" stroke-width="1" />
      <rect x="505.20" y="281.12" width="7.20" height="1.00" fill="#ff4444" stroke="#ff4444" stroke-width="1" />
    

      <line x1="520.80" y1="293.37" x2="520.80" y2="293.96" stroke="#ff4444" stroke-width="1" />
      <rect x="517.20" y="293.42" width="7.20" height="1.00" fill="#ff4444" stroke="#ff4444" stroke-width="1" />
    

      <line x1="532.80" y1="311.04" x2="532.80" y2="311.45" stroke="#00ff88" stroke-width="1" />
      <rect x="529.20" y="311.21" width="7.20" height="1.00" fill="#00ff88" stroke="#00ff88" stroke-width="1" />
    

      <line x1="544.80" y1="295.90" x2="544.80" y2="296.28" stroke="#00ff88" stroke-width="1" />
      <rect x="541.20" y="295.96" width="7.20" height="1.00" fill="#00ff88" stroke="#00ff88" stroke-width="1" />
    

      <line x1="556.80" y1="265.12" x2="556.80" y2="265.48" stroke="#ff4444" stroke-width="1" />
      <rect x="553.20" y="265.14" width="7.20" height="1.00" fill="#ff4444" stroke="#ff4444" stroke-width="1" />
    

      <line x1="568.80" y1="240.68" x2="568.80" y2="240.95" stroke="#ff4444" stroke-width="1" />
      <rect x="565.20" y="240.77" width="7.20" height="1.00" fill="#ff4444" stroke="#ff4444" stroke-width="1" />
    

      <line x1="580.80" y1="230.39" x2="580.80" y2="230.86" stroke="#ff4444" stroke-width="1" />
      <rect x="577.20" y="230.69" width="7.20" height="1.00" fill="#ff4444" stroke="#ff4444" stroke-width="1" />
    

      <line x1="592.80" y1="240.47" x2="592.80" y2="240.83" stroke="#ff4444" stroke-width="1" />
      <rect x="589.20" y="240.30" width="7.20" height="1.00" fill="#ff4444" stroke="#ff4444" stroke-width="1" />
    

      <line x1="604.80" y1="240.98" x2="604.80" y2="241.38" stroke="#ff4444" stroke-width="1" />
      <rect x="601.20" y="241.16" width="7.20" height="1.00" fill="#ff4444" stroke="#ff4444" stroke-width="1" />
    

      <line x1="616.80" y1="243.13" x2="616.80" y2="243.41" stroke="#ff4444" stroke-width="1" />
      <rect x="613.20" y="243.13" width="7.20" height="1.00" fill="#ff4444" stroke="#ff4444" stroke-width="1" />
    

      <line x1="628.80" y1="256.63" x2="628.80" y2="257.03" stroke="#00ff88" stroke-width="1" />
      <rect x="625.20" y="256.86" width="7.20" height="1.00" fill="#00ff88" stroke="#00ff88" stroke-width="1" />
    

      <line x1="640.80" y1="282.22" x2="640.80" y2="282.46" stroke="#00ff88" stroke-width="1" />
      <rect x="637.20" y="282.32" width="7.20" height="1.00" fill="#00ff88" stroke="#00ff88" stroke-width="1" />
    

      <line x1="652.80" y1="277.38" x2="652.80" y2="277.85" stroke="#ff4444" stroke-width="1" />
      <rect x="649.20" y="277.42" width="7.20" height="1.00" fill="#ff4444" stroke="#ff4444" stroke-width="1" />
    

      <line x1="664.80" y1="275.77" x2="664.80" y2="275.96" stroke="#00ff88" stroke-width="1" />
      <rect x="661.20" y="275.82" width="7.20" height="1.00" fill="#00ff88" stroke="#00ff88" stroke-width="1" />
    

      <line x1="676.80" y1="288.42" x2="676.80" y2="288.83" stroke="#ff4444" stroke-width="1" />
      <rect x="673.20" y="288.49" width="7.20" height="1.00" fill="#ff4444" stroke="#ff4444" stroke-width="1" />
    

      <line x1="688.80" y1="263.58" x2="688.80" y2="264.22" stroke="#00ff88" stroke-width="1" />
      <rect x="685.20" y="263.89" width="7.20" height="1.00" fill="#00ff88" stroke="#00ff88" stroke-width="1" />
    

      <line x1="700.80" y1="249.82" x2="700.80" y2="250.26" stroke="#00ff88" stroke-width="1" />
      <rect x="697.20" y="250.17" width="7.20" height="1.00" fill="#00ff88" stroke="#00ff88" stroke-width="1" />
    

      <line x1="712.80" y1="253.26" x2="712.80" y2="253.87" stroke="#ff4444" stroke-width="1" />
      <rect x="709.20" y="253.35" width="7.20" height="1.00" fill="#ff4444" stroke="#ff4444" stroke-width="1" />
    

      <line x1="724.80" y1="249.77" x2="724.80" y2="250.01" stroke="#00ff88" stroke-width="1" />
      <rect x="721.20" y="249.86" width="7.20" height="1.00" fill="#00ff88" stroke="#00ff88" stroke-width="1" />
    

      <line x1="736.80" y1="262.39" x2="736.80" y2="262.75" stroke="#ff4444" stroke-width="1" />
      <rect x="733.20" y="262.42" width="7.20" height="1.00" fill="#ff4444" stroke="#ff4444" stroke-width="1" />
    

      <line x1="748.80" y1="245.79" x2="748.80" y2="246.31" stroke="#ff4444" stroke-width="1" />
      <rect x="745.20" y="245.80" width="7.20" height="1.00" fill="#ff4444" stroke="#ff4444" stroke-width="1" />
    

      <line x1="760.80" y1="264.87" x2="760.80" y2="265.25" stroke="#ff4444" stroke-width="1" />
      <rect x="757.20" y="264.83" width="7.20" height="1.00" fill="#ff4444" stroke="#ff4444" stroke-width="1" />
    

      <line x1="772.80" y1="272.03" x2="772.80" y2="272.20" stroke="#ff4444" stroke-width="1" />
      <rect x="769.20" y="272.05" width="7.20" height="1.00" fill="#ff4444" stroke="#ff4444" stroke-width="1" />
    
    <text x="400" y="25" fill="#fff" font-size="14" text-anchor="middle">Price History (Candlestick - Last 60 Days)</text>
    <text x="50" y="364.00" fill="#fff" font-size="12" text-anchor="end">$0.16</text>
<text x="50" y="300.00" fill="#fff" font-size="12" text-anchor="end">$0.16</text>
<text x="50" y="236.00" fill="#fff" font-size="12" text-anchor="end">$0.17</text>
<text x="50" y="172.00" fill="#fff" font-size="12" text-anchor="end">$0.17</text>
<text x="50" y="108.00" fill="#fff" font-size="12" text-anchor="end">$0.18</text>
<text x="50" y="44.00" fill="#fff" font-size="12" text-anchor="end">$0.18</text>
  </svg>