<?xml version="1.0" encoding="UTF-8"?>
  <svg xmlns="http://www.w3.org/2000/svg" width="800" height="400" viewBox="0 0 800 400">
    <rect x="0" y="0" width="800" height="400" fill="#1a1a1a" />
    
      <line x1="64.80" y1="93.05" x2="64.80" y2="93.36" stroke="#ff4444" stroke-width="1" />
      <rect x="61.20" y="93.02" width="7.20" height="1.00" fill="#ff4444" stroke="#ff4444" stroke-width="1" />
    

      <line x1="76.80" y1="110.52" x2="76.80" y2="110.92" stroke="#00ff88" stroke-width="1" />
      <rect x="73.20" y="110.57" width="7.20" height="1.00" fill="#00ff88" stroke="#00ff88" stroke-width="1" />
    

      <line x1="88.80" y1="98.35" x2="88.80" y2="98.78" stroke="#ff4444" stroke-width="1" />
      <rect x="85.20" y="98.36" width="7.20" height="1.00" fill="#ff4444" stroke="#ff4444" stroke-width="1" />
    

      <line x1="100.80" y1="106.19" x2="100.80" y2="106.80" stroke="#ff4444" stroke-width="1" />
      <rect x="97.20" y="106.24" width="7.20" height="1.00" fill="#ff4444" stroke="#ff4444" stroke-width="1" />
    

      <line x1="112.80" y1="106.11" x2="112.80" y2="106.33" stroke="#00ff88" stroke-width="1" />
      <rect x="109.20" y="106.31" width="7.20" height="1.00" fill="#00ff88" stroke="#00ff88" stroke-width="1" />
    

      <line x1="124.80" y1="106.60" x2="124.80" y2="106.94" stroke="#00ff88" stroke-width="1" />
      <rect x="121.20" y="106.62" width="7.20" height="1.00" fill="#00ff88" stroke="#00ff88" stroke-width="1" />
    

      <line x1="136.80" y1="85.12" x2="136.80" y2="85.59" stroke="#ff4444" stroke-width="1" />
      <rect x="133.20" y="85.48" width="7.20" height="1.00" fill="#ff4444" stroke="#ff4444" stroke-width="1" />
    

      <line x1="148.80" y1="118.06" x2="148.80" y2="118.32" stroke="#00ff88" stroke-width="1" />
      <rect x="145.20" y="118.25" width="7.20" height="1.00" fill="#00ff88" stroke="#00ff88" stroke-width="1" />
    

      <line x1="160.80" y1="158.12" x2="160.80" y2="158.64" stroke="#ff4444" stroke-width="1" />
      <rect x="157.20" y="158.30" width="7.20" height="1.00" fill="#ff4444" stroke="#ff4444" stroke-width="1" />
    

      <line x1="172.80" y1="199.31" x2="172.80" y2="199.66" stroke="#ff4444" stroke-width="1" />
      <rect x="169.20" y="199.30" width="7.20" height="1.00" fill="#ff4444" stroke="#ff4444" stroke-width="1" />
    

      <line x1="184.80" y1="234.34" x2="184.80" y2="234.84" stroke="#ff4444" stroke-width="1" />
      <rect x="181.20" y="234.31" width="7.20" height="1.00" fill="#ff4444" stroke="#ff4444" stroke-width="1" />
    

      <line x1="196.80" y1="257.34" x2="196.80" y2="257.58" stroke="#ff4444" stroke-width="1" />
      <rect x="193.20" y="257.27" width="7.20" height="1.00" fill="#ff4444" stroke="#ff4444" stroke-width="1" />
    

      <line x1="208.80" y1="265.19" x2="208.80" y2="265.52" stroke="#ff4444" stroke-width="1" />
      <rect x="205.20" y="265.16" width="7.20" height="1.00" fill="#ff4444" stroke="#ff4444" stroke-width="1" />
    

      <line x1="220.80" y1="272.73" x2="220.80" y2="273.00" stroke="#ff4444" stroke-width="1" />
      <rect x="217.20" y="272.54" width="7.20" height="1.00" fill="#ff4444" stroke="#ff4444" stroke-width="1" />
    

      <line x1="232.80" y1="236.37" x2="232.80" y2="236.96" stroke="#00ff88" stroke-width="1" />
      <rect x="229.20" y="236.62" width="7.20" height="1.00" fill="#00ff88" stroke="#00ff88" stroke-width="1" />
    

      <line x1="244.80" y1="222.50" x2="244.80" y2="223.16" stroke="#00ff88" stroke-width="1" />
      <rect x="241.20" y="222.84" width="7.20" height="1.00" fill="#00ff88" stroke="#00ff88" stroke-width="1" />
    

      <line x1="256.80" y1="238.99" x2="256.80" y2="239.04" stroke="#ff4444" stroke-width="1" />
      <rect x="253.20" y="238.83" width="7.20" height="1.00" fill="#ff4444" stroke="#ff4444" stroke-width="1" />
    

      <line x1="268.80" y1="245.48" x2="268.80" y2="245.67" stroke="#ff4444" stroke-width="1" />
      <rect x="265.20" y="245.37" width="7.20" height="1.00" fill="#ff4444" stroke="#ff4444" stroke-width="1" />
    

      <line x1="280.80" y1="248.39" x2="280.80" y2="248.96" stroke="#ff4444" stroke-width="1" />
      <rect x="277.20" y="248.63" width="7.20" height="1.00" fill="#ff4444" stroke="#ff4444" stroke-width="1" />
    

      <line x1="292.80" y1="272.39" x2="292.80" y2="272.64" stroke="#ff4444" stroke-width="1" />
      <rect x="289.20" y="272.59" width="7.20" height="1.00" fill="#ff4444" stroke="#ff4444" stroke-width="1" />
    

      <line x1="304.80" y1="309.99" x2="304.80" y2="310.20" stroke="#ff4444" stroke-width="1" />
      <rect x="301.20" y="310.03" width="7.20" height="1.00" fill="#ff4444" stroke="#ff4444" stroke-width="1" />
    

      <line x1="316.80" y1="275.60" x2="316.80" y2="275.84" stroke="#ff4444" stroke-width="1" />
      <rect x="313.20" y="275.62" width="7.20" height="1.00" fill="#ff4444" stroke="#ff4444" stroke-width="1" />
    

      <line x1="328.80" y1="261.13" x2="328.80" y2="261.57" stroke="#00ff88" stroke-width="1" />
      <rect x="325.20" y="261.38" width="7.20" height="1.00" fill="#00ff88" stroke="#00ff88" stroke-width="1" />
    

      <line x1="340.80" y1="255.24" x2="340.80" y2="255.67" stroke="#ff4444" stroke-width="1" />
      <rect x="337.20" y="255.45" width="7.20" height="1.00" fill="#ff4444" stroke="#ff4444" stroke-width="1" />
    

      <line x1="352.80" y1="275.27" x2="352.80" y2="275.46" stroke="#ff4444" stroke-width="1" />
      <rect x="349.20" y="275.19" width="7.20" height="1.00" fill="#ff4444" stroke="#ff4444" stroke-width="1" />
    

      <line x1="364.80" y1="306.62" x2="364.80" y2="306.86" stroke="#ff4444" stroke-width="1" />
      <rect x="361.20" y="306.68" width="7.20" height="1.00" fill="#ff4444" stroke="#ff4444" stroke-width="1" />
    

      <line x1="376.80" y1="296.90" x2="376.80" y2="297.06" stroke="#00ff88" stroke-width="1" />
      <rect x="373.20" y="297.04" width="7.20" height="1.00" fill="#00ff88" stroke="#00ff88" stroke-width="1" />
    

      <line x1="388.80" y1="319.34" x2="388.80" y2="319.56" stroke="#00ff88" stroke-width="1" />
      <rect x="385.20" y="319.48" width="7.20" height="1.00" fill="#00ff88" stroke="#00ff88" stroke-width="1" />
    

      <line x1="400.80" y1="309.94" x2="400.80" y2="310.09" stroke="#ff4444" stroke-width="1" />
      <rect x="397.20" y="310.05" width="7.20" height="1.00" fill="#ff4444" stroke="#ff4444" stroke-width="1" />
    

      <line x1="412.80" y1="310.71" x2="412.80" y2="310.90" stroke="#00ff88" stroke-width="1" />
      <rect x="409.20" y="310.89" width="7.20" height="1.00" fill="#00ff88" stroke="#00ff88" stroke-width="1" />
    

      <line x1="424.80" y1="271.72" x2="424.80" y2="272.30" stroke="#ff4444" stroke-width="1" />
      <rect x="421.20" y="271.83" width="7.20" height="1.00" fill="#ff4444" stroke="#ff4444" stroke-width="1" />
    

      <line x1="436.80" y1="259.45" x2="436.80" y2="259.84" stroke="#ff4444" stroke-width="1" />
      <rect x="433.20" y="259.39" width="7.20" height="1.00" fill="#ff4444" stroke="#ff4444" stroke-width="1" />
    

      <line x1="448.80" y1="254.34" x2="448.80" y2="254.67" stroke="#ff4444" stroke-width="1" />
      <rect x="445.20" y="254.37" width="7.20" height="1.00" fill="#ff4444" stroke="#ff4444" stroke-width="1" />
    

      <line x1="460.80" y1="281.12" x2="460.80" y2="281.21" stroke="#ff4444" stroke-width="1" />
      <rect x="457.20" y="281.10" width="7.20" height="1.00" fill="#ff4444" stroke="#ff4444" stroke-width="1" />
    

      <line x1="472.80" y1="276.75" x2="472.80" y2="277.14" stroke="#00ff88" stroke-width="1" />
      <rect x="469.20" y="276.97" width="7.20" height="1.00" fill="#00ff88" stroke="#00ff88" stroke-width="1" />
    

      <line x1="484.80" y1="248.95" x2="484.80" y2="249.39" stroke="#ff4444" stroke-width="1" />
      <rect x="481.20" y="249.10" width="7.20" height="1.00" fill="#ff4444" stroke="#ff4444" stroke-width="1" />
    

      <line x1="496.80" y1="292.45" x2="496.80" y2="292.60" stroke="#00ff88" stroke-width="1" />
      <rect x="493.20" y="292.47" width="7.20" height="1.00" fill="#00ff88" stroke="#00ff88" stroke-width="1" />
    

      <line x1="508.80" y1="280.98" x2="508.80" y2="281.43" stroke="#ff4444" stroke-width="1" />
      <rect x="505.20" y="281.10" width="7.20" height="1.00" fill="#ff4444" stroke="#ff4444" stroke-width="1" />
    

      <line x1="520.80" y1="293.46" x2="520.80" y2="293.82" stroke="#ff4444" stroke-width="1" />
      <rect x="517.20" y="293.61" width="7.20" height="1.00" fill="#ff4444" stroke="#ff4444" stroke-width="1" />
    

      <line x1="532.80" y1="310.90" x2="532.80" y2="311.25" stroke="#00ff88" stroke-width="1" />
      <rect x="529.20" y="311.20" width="7.20" height="1.00" fill="#00ff88" stroke="#00ff88" stroke-width="1" />
    

      <line x1="544.80" y1="295.75" x2="544.80" y2="296.11" stroke="#ff4444" stroke-width="1" />
      <rect x="541.20" y="295.79" width="7.20" height="1.00" fill="#ff4444" stroke="#ff4444" stroke-width="1" />
    

      <line x1="556.80" y1="265.35" x2="556.80" y2="265.40" stroke="#00ff88" stroke-width="1" />
      <rect x="553.20" y="265.36" width="7.20" height="1.00" fill="#00ff88" stroke="#00ff88" stroke-width="1" />
    

      <line x1="568.80" y1="240.85" x2="568.80" y2="241.26" stroke="#ff4444" stroke-width="1" />
      <rect x="565.20" y="240.78" width="7.20" height="1.00" fill="#ff4444" stroke="#ff4444" stroke-width="1" />
    

      <line x1="580.80" y1="230.69" x2="580.80" y2="230.89" stroke="#ff4444" stroke-width="1" />
      <rect x="577.20" y="230.63" width="7.20" height="1.00" fill="#ff4444" stroke="#ff4444" stroke-width="1" />
    

      <line x1="592.80" y1="240.51" x2="592.80" y2="240.68" stroke="#00ff88" stroke-width="1" />
      <rect x="589.20" y="240.58" width="7.20" height="1.00" fill="#00ff88" stroke="#00ff88" stroke-width="1" />
    

      <line x1="604.80" y1="241.17" x2="604.80" y2="241.53" stroke="#00ff88" stroke-width="1" />
      <rect x="601.20" y="241.25" width="7.20" height="1.00" fill="#00ff88" stroke="#00ff88" stroke-width="1" />
    

      <line x1="616.80" y1="243.15" x2="616.80" y2="243.69" stroke="#00ff88" stroke-width="1" />
      <rect x="613.20" y="243.38" width="7.20" height="1.00" fill="#00ff88" stroke="#00ff88" stroke-width="1" />
    

      <line x1="628.80" y1="256.74" x2="628.80" y2="257.03" stroke="#ff4444" stroke-width="1" />
      <rect x="625.20" y="256.88" width="7.20" height="1.00" fill="#ff4444" stroke="#ff4444" stroke-width="1" />
    

      <line x1="640.80" y1="282.27" x2="640.80" y2="282.42" stroke="#ff4444" stroke-width="1" />
      <rect x="637.20" y="282.22" width="7.20" height="1.00" fill="#ff4444" stroke="#ff4444" stroke-width="1" />
    

      <line x1="652.80" y1="277.57" x2="652.80" y2="277.88" stroke="#ff4444" stroke-width="1" />
      <rect x="649.20" y="277.68" width="7.20" height="1.00" fill="#ff4444" stroke="#ff4444" stroke-width="1" />
    

      <line x1="664.80" y1="275.67" x2="664.80" y2="275.95" stroke="#00ff88" stroke-width="1" />
      <rect x="661.20" y="275.84" width="7.20" height="1.00" fill="#00ff88" stroke="#00ff88" stroke-width="1" />
    

      <line x1="676.80" y1="288.19" x2="676.80" y2="288.74" stroke="#00ff88" stroke-width="1" />
      <rect x="673.20" y="288.51" width="7.20" height="1.00" fill="#00ff88" stroke="#00ff88" stroke-width="1" />
    

      <line x1="688.80" y1="263.69" x2="688.80" y2="264.13" stroke="#ff4444" stroke-width="1" />
      <rect x="685.20" y="263.90" width="7.20" height="1.00" fill="#ff4444" stroke="#ff4444" stroke-width="1" />
    

      <line x1="700.80" y1="249.93" x2="700.80" y2="250.38" stroke="#ff4444" stroke-width="1" />
      <rect x="697.20" y="250.09" width="7.20" height="1.00" fill="#ff4444" stroke="#ff4444" stroke-width="1" />
    

      <line x1="712.80" y1="253.51" x2="712.80" y2="253.87" stroke="#ff4444" stroke-width="1" />
      <rect x="709.20" y="253.41" width="7.20" height="1.00" fill="#ff4444" stroke="#ff4444" stroke-width="1" />
    

      <line x1="724.80" y1="249.86" x2="724.80" y2="250.14" stroke="#ff4444" stroke-width="1" />
      <rect x="721.20" y="249.60" width="7.20" height="1.00" fill="#ff4444" stroke="#ff4444" stroke-width="1" />
    

      <line x1="736.80" y1="262.58" x2="736.80" y2="262.84" stroke="#00ff88" stroke-width="1" />
      <rect x="733.20" y="262.62" width="7.20" height="1.00" fill="#00ff88" stroke="#00ff88" stroke-width="1" />
    

      <line x1="748.80" y1="246.02" x2="748.80" y2="246.34" stroke="#00ff88" stroke-width="1" />
      <rect x="745.20" y="246.16" width="7.20" height="1.00" fill="#00ff88" stroke="#00ff88" stroke-width="1" />
    

      <line x1="760.80" y1="264.95" x2="760.80" y2="265.26" stroke="#00ff88" stroke-width="1" />
      <rect x="757.20" y="265.10" width="7.20" height="1.00" fill="#00ff88" stroke="#00ff88" stroke-width="1" />
    

      <line x1="772.80" y1="271.27" x2="772.80" y2="271.74" stroke="#ff4444" stroke-width="1" />
      <rect x="769.20" y="271.32" width="7.20" height="1.00" fill="#ff4444" stroke="#ff4444" stroke-width="1" />
    
    <text x="400" y="25" fill="#fff" font-size="14" text-anchor="middle">Price History (Candlestick - Last 60 Days)</text>
    <text x="50" y="364.00" fill="#fff" font-size="12" text-anchor="end">$0.16</text>
<text x="50" y="300.00" fill="#fff" font-size="12" text-anchor="end">$0.16</text>
<text x="50" y="236.00" fill="#fff" font-size="12" text-anchor="end">$0.17</text>
<text x="50" y="172.00" fill="#fff" font-size="12" text-anchor="end">$0.17</text>
<text x="50" y="108.00" fill="#fff" font-size="12" text-anchor="end">$0.18</text>
<text x="50" y="44.00" fill="#fff" font-size="12" text-anchor="end">$0.18</text>
  </svg>